# xmcd CD database file
#
# Track frame offsets:
#	150
#	12857
#	31227
#	42842
#	56007
#	69405
#	83312
#	96987
#	109590
#	121510
#	133022
#	145757
#	159427
#	177977
#	191482
#	205630
#	219490
#
# Disc length: 3105 seconds
#
# Revision: 0
# Processed by: cddbd v1.4PL0 Copyright (c) Steve Scherf et al.
# Submitted via: CDex 1.40Beta9
#
DISCID=d70c1f11
DTITLE=Wim Van Beijeren - Forever Country
DYEAR=1900
DGENRE=Country
TTITLE0=Don't Ask Me
TTITLE1=Nobody's child
TTITLE2=Too Blind Too See
TTITLE3=Walk Away
TTITLE4=Tennesee Bird Walk
TTITLE5=You'll Never Walk Alone
TTITLE6=Help Me Make It Through The Night
TTITLE7=Highway Man
TTITLE8=Tou Better Move On
TTITLE9=When The Snow Is On The Roses
TTITLE10=I Believe I'm Gonna Love You
TTITLE11=Take Me Home, Country Roads
TTITLE12=Nobody's Child
TTITLE13=Tennesee Bird Walk (Karaoke)
TTITLE14=You'll Never Walk Alone (karaoke)
TTITLE15=Help Me Make It Through The Night (Karaoke)
TTITLE16=Take Me Home, Country Roads (Karaoke)
EXTD=ID3G: 2
EXTT0=
EXTT1=
EXTT2=
EXTT3=
EXTT4=
EXTT5=
EXTT6=
EXTT7=
EXTT8=
EXTT9=
EXTT10=
EXTT11=
EXTT12=
EXTT13=
EXTT14=
EXTT15=
EXTT16=
PLAYORDER=
